# xmcd
#
# Track frame offsets:
#	150
#	9927
#	30397
#	39547
#	53375
#	61882
#	73000
#	83217
#	97900
#	110622
#	125165
#	138042
#	154575
#	168377
#	185895
#	195172
#	203982
#	215217
#	224507
#	234760
#	248712
#	259187
#	276437
#	288890
#	304117
#	314662
#
# Disc length: 4443 seconds
#
# Revision: 0
# Processed by: cddbd v1.5.2PL0 Copyright (c) Steve Scherf et al.
# Submitted via: EasyCDDAExtractor 12.0.1.1
#
DISCID=7511591a
DTITLE=Mac Wiseman - The Mac Wiseman Story CD3  (CMH 2001)
DYEAR=1900
DGENRE=Bluegrass
TTITLE0=Give The Fiddler A Dream
TTITLE1=In The Pines
TTITLE2=Fire On The Mountain
TTITLE3=Fifty Years Ago Waltz
TTITLE4=Hell Broke Loose In Georgia
TTITLE5=Trouble In Mind
TTITLE6=McMichen's Reel
TTITLE7=Peach Pickin' Time In Georgia
TTITLE8=Limehouse Blues
TTITLE9=The Convict And The Rose
TTITLE10=Carroll County Blues
TTITLE11=House Of The Rising Sun
TTITLE12=I'm Looking Over A Four-Leaf Clover
TTITLE13=Dreamy Georgiana Moon
TTITLE14=Waiting For The Robert E. Lee
TTITLE15=Ida Red
TTITLE16=Rock Jenny Rock
TTITLE17=Arkansas Traveler
TTITLE18=Bile Em Cabbage Down
TTITLE19=In The Blue Hills Of Virginia and Back To Old Smoky Mountain
TTITLE20=Sweet Georgia Brown
TTITLE21=They Cut Down The Old Pine Tree
TTITLE22=Darktown Strutters Ball
TTITLE23=Goodnight Waltz
TTITLE24=Farewell Blues
TTITLE25=Sweet Bunch Of Daisies
EXTD=
EXTT0=
EXTT1=
EXTT2=
EXTT3=
EXTT4=
EXTT5=
EXTT6=
EXTT7=
EXTT8=
EXTT9=
EXTT10=
EXTT11=
EXTT12=
EXTT13=
EXTT14=
EXTT15=
EXTT16=
EXTT17=
EXTT18=
EXTT19=
EXTT20=
EXTT21=
EXTT22=
EXTT23=
EXTT24=
EXTT25=
PLAYORDER=
